<svg width="7" height="7" viewBox="0 0 7 7" fill="none" xmlns="http://www.w3.org/2000/svg">
<path d="M6.5 1.05344V0.553436H6H3C2.17157 0.553436 1.5 1.22501 1.5 2.05344V5.08397V5.58397H2H6H6.5V5.08397V1.05344Z" stroke="#00FF9F" stroke-linecap="round"/>
<circle cx="1.5" cy="1" r="1" fill="#00FFC2"/>
<path d="M4.125 1.45836L3.1875 4.94131H2.52273L3.46023 1.45836H4.125ZM4.37328 4.54927C4.26343 4.54927 4.16921 4.51092 4.09061 4.43421C4.01296 4.35656 3.97461 4.26234 3.97555 4.15154C3.97461 4.04359 4.01296 3.95126 4.09061 3.87455C4.16921 3.79785 4.26343 3.7595 4.37328 3.7595C4.47745 3.7595 4.5693 3.79785 4.64885 3.87455C4.72934 3.95126 4.77006 4.04359 4.77101 4.15154C4.77006 4.22541 4.75065 4.29264 4.71277 4.35325C4.67584 4.41291 4.62754 4.46073 4.56788 4.49671C4.50822 4.53175 4.44336 4.54927 4.37328 4.54927Z" fill="#00FFC2"/>
<path d="M4.95714 1.59472H5.74124V3.79359C5.74218 3.83809 5.75497 3.87219 5.77959 3.89586C5.80516 3.91859 5.84161 3.92995 5.88896 3.92995C5.91358 3.92995 5.93347 3.929 5.94862 3.92711C5.96377 3.92522 5.97608 3.92238 5.98555 3.91859L6.09919 4.45836C6.06699 4.46878 6.02817 4.47967 5.98271 4.49103C5.93726 4.50239 5.86813 4.51044 5.77533 4.51518C5.49408 4.52938 5.28764 4.48582 5.15601 4.3845C5.02438 4.28222 4.95809 4.10988 4.95714 3.86745V1.59472Z" fill="#00FF9F"/>
</svg>
